<?xml version="1.0" encoding="utf-8"?>
<!-- Generator: Adobe Illustrator 21.0.0, SVG Export Plug-In . SVG Version: 6.00 Build 0)  -->
<svg version="1.1" id="Layer_1" xmlns="http://www.w3.org/2000/svg" xmlns:xlink="http://www.w3.org/1999/xlink" x="0px" y="0px"
	 viewBox="0 0 380 380" style="enable-background:new 0 0 380 380;" xml:space="preserve">
<style type="text/css">
	.st0{fill:#999999;}
</style>
<g>
	<path class="st0" d="M348,182h-59.7c-0.6-28-4.5-55.7-11.2-80.6H315c4.4,0,8-3.6,8-8s-3.6-8-8-8h-42.7
		c-6.5-19.3-14.7-35.9-24.3-49.3c-1.2-1.7-3.1-2.9-5.2-3.2c-2.1-0.4-4.2,0.1-6,1.4c-1.7,1.2-2.9,3.1-3.2,5.2c-0.4,2.1,0.1,4.2,1.4,6
		c7.8,11,14.7,24.4,20.4,40H198V32c0-4.4-3.6-8-8-8s-8,3.6-8,8v53.4h-57.4c5.7-15.6,12.5-29,20.4-40c1.2-1.7,1.7-3.9,1.4-6
		c-0.4-2.1-1.5-4-3.2-5.2c-3.6-2.6-8.6-1.7-11.2,1.9c-9.6,13.4-17.7,30-24.3,49.3H65c-4.4,0-8,3.6-8,8s3.6,8,8,8h37.8
		C96.1,126.3,92.3,154,91.7,182H32c-4.4,0-8,3.6-8,8s3.6,8,8,8h59.7c0.6,28,4.5,55.7,11.2,80.6H65c-4.4,0-8,3.6-8,8s3.6,8,8,8h42.7
		c6.5,19.3,14.7,35.9,24.3,49.3c1.5,2.1,3.9,3.4,6.5,3.4c1.7,0,3.3-0.5,4.6-1.5c3.6-2.6,4.4-7.6,1.9-11.2c-7.8-11-14.7-24.4-20.4-40
		H182V348c0,4.4,3.6,8,8,8s8-3.6,8-8v-53.4h57.4c-5.7,15.6-12.5,29-20.4,40c-2.6,3.6-1.7,8.6,1.9,11.2c1.4,1,3,1.5,4.6,1.5
		c2.6,0,5-1.3,6.5-3.3c9.6-13.4,17.7-30,24.3-49.3H315c4.4,0,8-3.6,8-8s-3.6-8-8-8h-37.8c6.7-24.8,10.5-52.6,11.2-80.6H348
		c4.4,0,8-3.6,8-8S352.4,182,348,182z M272.3,198c-0.6,28.3-4.7,56.1-11.7,80.6H198V198H272.3z M198,182v-80.6h62.6
		c7,24.5,11.1,52.3,11.7,80.6H198z M182,198v80.6h-62.6c-7-24.5-11.1-52.3-11.7-80.6H182z M107.7,182c0.6-28.3,4.7-56.1,11.7-80.6
		H182V182H107.7z"/>
	<path class="st0" d="M324.4,55.6L324.4,55.6C288.5,19.8,240.7,0,190,0S91.5,19.8,55.6,55.6C19.8,91.5,0,139.3,0,190
		c0,37,10.6,72.9,30.8,103.7l-22.7,68c-1,2.9-0.2,6,1.9,8.2c2.2,2.2,5.3,2.9,8.2,1.9l68-22.7C117.1,369.4,153,380,190,380
		c50.7,0,98.5-19.8,134.4-55.6C360.2,288.5,380,240.7,380,190C380,139.3,360.2,91.5,324.4,55.6z M190,364c-35.2,0-69.1-10.5-98-30.2
		c-1.3-0.9-2.9-1.4-4.5-1.4c-0.9,0-1.7,0.1-2.5,0.4l-56.5,18.8l18.8-56.5c0.8-2.4,0.4-5-1-7C26.5,259.1,16,225.2,16,190
		C16,94.1,94.1,16,190,16c95.9,0,174,78.1,174,174C364,285.9,285.9,364,190,364z"/>
</g>
</svg>
