<?xml version="1.0" encoding="utf-8"?>
<!-- Generator: Adobe Illustrator 21.0.0, SVG Export Plug-In . SVG Version: 6.00 Build 0)  -->
<svg version="1.1" id="Layer_1" xmlns="http://www.w3.org/2000/svg" xmlns:xlink="http://www.w3.org/1999/xlink" x="0px" y="0px"
	 viewBox="0 0 512 429.2" style="enable-background:new 0 0 512 429.2;" xml:space="preserve">
<g>
	<polygon points="115.2,283.1 115.1,283.1 115.1,345 123,345 123,344.9 123.1,344.9 123.1,282.9 115.2,282.9 	"/>
	<polygon points="7.9,303.4 0.1,303.4 0.1,344.9 0.1,344.9 0.1,345 7.9,345 7.9,303.6 7.9,303.6 	"/>
	<path d="M104.9,345L55,328.5h23.4v0c0.1,0,0.1,0,0.2,0c9.5,0,17.7-4.8,21.9-11.9c1.9-3.2,3-6.9,3-10.9c0-12.6-11.2-22.7-24.9-22.7
		c0,0-0.1,0-0.1,0v0H0.1v12.9h0v0.1h56h0h17.3c11.2,0,20.3,4.4,20.3,9.8c0,0.7-0.1,1.3-0.4,2c-2,4.4-10.1,7.7-19.8,7.8H15.8v0.1v0.1
		v0.1v12.8v0l50.1,16.5L104.9,345h-0.3H104.9z"/>
	<path d="M309,283.1l-0.1,0.1h-0.2L287,332.1h-21.6h-5.7H238l-8.4-18.8l13.5-30.2h-8.6l-0.1,0.1h-0.1l-9.1,20.3l-9.1-20.4h-8.6
		l0.1,0.1h-0.2l13.4,30.1l-8.4,18.7h-21.7h-5.7h-21.8l-21.9-49H133l0.1,0.1h-0.1l25.7,57.6c0,0,0.1,0.4,0.4,0.9l0.1,0.1l0,0
		c0.6,1.1,1.8,2.8,3.8,3.2l0,0.1h0.8c0,0,0.1,0,0.1,0l0,0h48.4l0,0c0,0,0,0,0.1,0h0.8l0-0.1h0.1l0-0.1c0.5-0.1,0.9-0.3,1.3-0.5
		c1.2-0.7,2.1-1.9,2.5-2.7l0,0l0.1-0.1c0.3-0.5,0.4-0.9,0.4-0.9l7.8-17.6l7.9,17.7c0,0,0.1,0.4,0.4,0.9l0.1,0.1l0,0
		c0.6,1.1,1.8,2.8,3.8,3.2l0,0.1h0.8c0,0,0,0,0.1,0v0h48.4l0,0c0,0,0,0,0.1,0h0.8l0-0.1h0.2l0-0.1c0.4-0.1,0.8-0.2,1.2-0.5
		c1.3-0.7,2.2-1.9,2.6-2.8l0,0l0.1-0.1c0.3-0.5,0.4-0.9,0.4-0.9l25.7-57.6H309z"/>
	<path d="M504.2,282.9v0.1h-0.4v23.6h-66.6v-0.1c-19.4,0-21.2-9.7-21.4-12.1v-11.5h-7.9v0.1h-0.3v10.2v9.1v1
		c0,14.4,20.5,16.1,27.1,16.2v0h0.5c0.6,0,1.1,0,1.3,0l67.1,0v0c-0.1,1.3-1.1,8.6-11.8,11.4c-2.5,0.6-5.5,1-9.2,1l-21.2,0v0.1
		l-0.3,0V345l21.1,0.1l0,0c0,0,6.6,0.2,13.5-1.4c7.7-1.7,16-5.7,16-14.9v-3.6v-6.5v-35.7H504.2z"/>
	<path d="M387.5,287.4c0,0-0.1-0.4-0.4-0.9l-0.1-0.1l0,0c-0.6-1.1-1.8-2.8-3.8-3.2l0-0.1h-0.8c0,0-0.1,0-0.1,0l0,0H334v0
		c0,0-0.1,0-0.1,0h-0.8l0,0.1c0,0-0.1,0-0.1,0h-0.1l0,0.1c-0.4,0.1-0.8,0.3-1.2,0.5c-1.3,0.7-2.1,1.9-2.6,2.7l0,0l-0.1,0.1
		c-0.3,0.5-0.4,0.9-0.4,0.9l-25.7,57.6h8.6l0-0.1h0.2l21.8-48.9h21.6h5.6h21.7l8.7,19.6h-59.4l0,0.1h-0.2l-5.7,12.9H397l7.3,16.4
		h8.6l0-0.1h0.3L387.5,287.4z"/>
	<path d="M3.1,407.7h18.3v2.7H3.1v18.4H0v-40.5h24.6v2.7H3.1V407.7z"/>
	<path d="M77.7,408.6c0,2.3,0,4.2-0.1,5.9c0,1.6-0.2,3.1-0.4,4.4c-0.2,1.3-0.6,2.4-1.1,3.4c-0.5,1-1.2,1.9-2.1,2.8
		c-1.3,1.3-2.9,2.4-4.6,3.1c-1.7,0.7-3.6,1.1-5.5,1.1c-1.9,0-3.8-0.4-5.5-1.1c-1.7-0.7-3.3-1.7-4.6-3.1c-0.9-0.9-1.6-1.9-2.1-2.8
		c-0.5-1-0.9-2.1-1.1-3.4s-0.4-2.7-0.4-4.4c0-1.7-0.1-3.6-0.1-5.9c0-2.3,0-4.2,0.1-5.9c0-1.6,0.2-3.1,0.4-4.4s0.6-2.4,1.1-3.4
		c0.5-1,1.2-1.9,2.1-2.8c1.3-1.3,2.9-2.4,4.6-3.1c1.7-0.7,3.6-1.1,5.5-1.1c1.9,0,3.8,0.4,5.5,1.1c1.7,0.7,3.3,1.7,4.6,3.1
		c0.9,0.9,1.6,1.9,2.1,2.8c0.5,1,0.9,2.1,1.1,3.4c0.2,1.3,0.4,2.7,0.4,4.4C77.7,404.3,77.7,406.3,77.7,408.6z M74.7,408.6
		c0-2.2,0-4-0.1-5.6c-0.1-1.5-0.2-2.9-0.4-4c-0.2-1.1-0.5-2.1-0.9-2.9c-0.4-0.8-1-1.6-1.7-2.3c-1-1-2.2-1.8-3.5-2.3
		c-1.3-0.5-2.7-0.8-4.2-0.8c-1.4,0-2.8,0.3-4.2,0.8c-1.3,0.5-2.5,1.3-3.5,2.3c-0.7,0.7-1.3,1.5-1.7,2.3c-0.4,0.8-0.7,1.8-0.9,2.9
		c-0.2,1.1-0.3,2.4-0.4,4c-0.1,1.5-0.1,3.4-0.1,5.6s0,4,0.1,5.6c0.1,1.5,0.2,2.9,0.4,4c0.2,1.1,0.5,2.1,0.9,2.9
		c0.4,0.8,1,1.6,1.7,2.3c1,1,2.2,1.8,3.5,2.3c1.3,0.5,2.7,0.8,4.2,0.8c1.4,0,2.8-0.3,4.2-0.8c1.3-0.5,2.5-1.3,3.5-2.3
		c0.7-0.7,1.3-1.5,1.7-2.3c0.4-0.8,0.7-1.8,0.9-2.9c0.2-1.1,0.3-2.4,0.4-4C74.6,412.6,74.7,410.7,74.7,408.6z"/>
	<path d="M134.8,421.1c-0.7,1.6-1.6,3.1-2.9,4.3c-1.2,1.2-2.7,2.1-4.4,2.8c-1.7,0.7-3.6,1-5.6,1c-2,0-3.9-0.3-5.6-1
		c-1.7-0.7-3.1-1.6-4.4-2.8c-1.2-1.2-2.2-2.6-2.9-4.3c-0.7-1.6-1-3.5-1-5.4v-27.4h3.1v27c0,1.7,0.3,3.2,0.8,4.6
		c0.5,1.4,1.2,2.6,2.2,3.5c0.9,1,2.1,1.7,3.4,2.2c1.3,0.5,2.8,0.8,4.4,0.8c1.6,0,3.1-0.3,4.4-0.8c1.3-0.5,2.5-1.3,3.4-2.2
		c0.9-1,1.7-2.1,2.2-3.5c0.5-1.4,0.8-2.9,0.8-4.6v-27h3.1v27.4C135.8,417.7,135.4,419.5,134.8,421.1z"/>
	<path d="M170.7,393.6v35.2h-3.1v-40.5h3.1l23.4,35.1v-35.1h3.1v40.5h-3.1L170.7,393.6z"/>
	<path d="M257.3,408c0,1.4,0,2.8,0,4.4c0,1.6-0.2,3.1-0.4,4.7c-0.2,1.5-0.6,3-1.2,4.4c-0.5,1.4-1.3,2.6-2.3,3.6
		c-2.5,2.5-5.8,3.7-10.1,3.7h-13.6v-40.5h13.6c4.3,0,7.7,1.2,10.1,3.7c1,1,1.8,2.2,2.3,3.5c0.5,1.3,0.9,2.6,1.2,4
		c0.2,1.4,0.4,2.8,0.4,4.3C257.3,405.2,257.3,406.6,257.3,408z M254.2,408c0-1.1,0-2.3,0-3.6s-0.1-2.5-0.3-3.8
		c-0.2-1.2-0.5-2.4-0.9-3.5c-0.4-1.1-1-2.1-1.8-2.9c-1.2-1.2-2.5-2-4-2.5c-1.5-0.4-3.1-0.7-4.7-0.7h-9.8v35.1h9.8
		c1.6,0,3.2-0.2,4.7-0.7c1.5-0.4,2.8-1.3,4-2.5c0.8-0.8,1.4-1.9,1.8-3.1c0.4-1.2,0.7-2.5,0.9-3.9c0.2-1.4,0.3-2.8,0.3-4.2
		C254.2,410.4,254.2,409.1,254.2,408z"/>
	<path d="M307.9,419H289l-3.5,9.8h-3.3l14.9-40.5h2.7l14.9,40.5h-3.3L307.9,419z M290,416.3h17l-8.5-23.8L290,416.3z"/>
	<path d="M348.9,428.8h-3.1V391h-12.1v-2.7H361v2.7h-12.1V428.8z"/>
	<path d="M388.9,388.3h3.1v40.5h-3.1V388.3z"/>
	<path d="M450.6,408.6c0,2.3,0,4.2-0.1,5.9c0,1.6-0.2,3.1-0.4,4.4c-0.2,1.3-0.6,2.4-1.1,3.4c-0.5,1-1.2,1.9-2.1,2.8
		c-1.3,1.3-2.9,2.4-4.6,3.1c-1.7,0.7-3.6,1.1-5.5,1.1c-1.9,0-3.8-0.4-5.5-1.1c-1.7-0.7-3.3-1.7-4.6-3.1c-0.9-0.9-1.6-1.9-2.1-2.8
		c-0.5-1-0.9-2.1-1.1-3.4c-0.2-1.3-0.4-2.7-0.4-4.4c0-1.7-0.1-3.6-0.1-5.9c0-2.3,0-4.2,0.1-5.9c0-1.6,0.2-3.1,0.4-4.4
		c0.2-1.3,0.6-2.4,1.1-3.4c0.5-1,1.2-1.9,2.1-2.8c1.3-1.3,2.9-2.4,4.6-3.1c1.7-0.7,3.6-1.1,5.5-1.1c1.9,0,3.8,0.4,5.5,1.1
		c1.7,0.7,3.3,1.7,4.6,3.1c0.9,0.9,1.6,1.9,2.1,2.8c0.5,1,0.9,2.1,1.1,3.4c0.2,1.3,0.4,2.7,0.4,4.4
		C450.6,404.3,450.6,406.3,450.6,408.6z M447.5,408.6c0-2.2,0-4-0.1-5.6c-0.1-1.5-0.2-2.9-0.4-4s-0.5-2.1-0.9-2.9
		c-0.4-0.8-1-1.6-1.7-2.3c-1-1-2.2-1.8-3.5-2.3c-1.3-0.5-2.7-0.8-4.2-0.8c-1.4,0-2.8,0.3-4.2,0.8c-1.3,0.5-2.5,1.3-3.5,2.3
		c-0.7,0.7-1.3,1.5-1.7,2.3s-0.7,1.8-0.9,2.9c-0.2,1.1-0.3,2.4-0.4,4c-0.1,1.5-0.1,3.4-0.1,5.6s0,4,0.1,5.6c0.1,1.5,0.2,2.9,0.4,4
		c0.2,1.1,0.5,2.1,0.9,2.9c0.4,0.8,1,1.6,1.7,2.3c1,1,2.2,1.8,3.5,2.3c1.3,0.5,2.7,0.8,4.2,0.8c1.4,0,2.8-0.3,4.2-0.8
		c1.3-0.5,2.5-1.3,3.5-2.3c0.7-0.7,1.3-1.5,1.7-2.3c0.4-0.8,0.7-1.8,0.9-2.9c0.2-1.1,0.3-2.4,0.4-4
		C447.5,412.6,447.5,410.7,447.5,408.6z"/>
	<path d="M484.5,393.6v35.2h-3.1v-40.5h3.1l23.4,35.1v-35.1h3.1v40.5h-3.1L484.5,393.6z"/>
	<rect y="365.6" width="511.2" height="2.5"/>
</g>
<g>
	<g>
		<path d="M233.5,28.8c1.1,0.4,2.1,0.8,3.2,1.2c1.7,0.7,3.5,1.6,5.2,2.6c5.6,3.1,10.2,6.5,13.9,10.1c-1.7-12-7.6-26.6-24.7-36.6
			c-1.2-0.7-2.5-1.4-3.7-1.9c-0.3-0.1-0.5-0.3-0.8-0.4c-22.2-9.8-49.4-0.2-61.8,27.5c-0.4,0.9-0.8,1.8-1.2,2.8
			c0,0.1-0.1,0.2-0.1,0.4c-0.6,1.4-1.1,2.9-1.6,4.5c-0.1,0.2-0.1,0.3-0.1,0.5c-0.3,0.8-0.5,1.7-0.7,2.6c-3,11.8-3.1,26.2,0.8,43.1
			c-0.4-19.7,6-32.4,10.9-39.2C186.2,27.3,210.6,20.4,233.5,28.8z"/>
		<path d="M362.7,115.4c0.4-0.8,0.8-1.6,1.1-2.4c0.1-0.2,0.2-0.3,0.2-0.5c0.6-1.5,1.2-3,1.7-4.4c0-0.1,0.1-0.2,0.1-0.4
			c0.3-1,0.6-1.9,0.9-2.9c8.3-29.2-6.3-54-29.6-60.8c-0.3-0.1-0.6-0.1-0.9-0.2c-1.3-0.4-2.7-0.7-4.1-0.9c-19.5-3.3-33.4,4-42.4,12.2
			c5.2-0.3,10.9,0,17.1,1.2c2,0.4,3.9,0.9,5.6,1.4c1.1,0.3,2.2,0.7,3.2,1.1c22.9,8.3,37.2,29.3,35.6,52.2c-0.6,8.4-3.9,22.2-16.7,37
			c4.5-3.9,9.3-8.1,14.4-12.9C355,128.5,359.6,121.9,362.7,115.4z"/>
		<path d="M236.9,52.6c1.2,0.6,2.4,1.1,3.5,1.8c12.2,7.1,18.5,13.4,20.6,21.2c-2.2-10.9-7.2-27-23.2-35.8c-1.5-0.8-3-1.6-4.5-2.2
			c-46.9-20-105.5,34.7-19.2,146.8C146.5,75.5,207.5,38.6,236.9,52.6z"/>
		<path d="M302.3,163.1c-0.3,0.4-0.6,0.8-0.9,1.3c61-36.3,46.7-87.2,8.7-98.7c-1.6-0.5-3.2-0.9-4.8-1.2
			c-17.9-3.5-32.1,5.6-40.8,12.5c6.6-4.6,15.5-5.4,29.4-3c1.3,0.2,2.6,0.6,3.9,0.9c22.3,5.8,40.3,41.2,6,75.5c0,0,0,0,0,0.1
			C305.1,154.8,304.6,159.3,302.3,163.1z"/>
		<path d="M240.1,61.7c-0.8-0.4-1.6-0.9-2.5-1.3c-30.9-13.6-75.1,25.8-24.3,111.2C187.3,99.6,217.6,58.7,240.1,61.7z"/>
		<path d="M268.4,164.6c4.5-2.5,9.2-5.3,13.3-7.8c0,0,3.4-2.1,4.9-3c0.1,0,5.5-3.3,9.8-5.3c29.8-29.6,18.9-61.4-4.3-68.2
			c-0.9-0.3-1.8-0.4-2.7-0.6c18,11.4,16.4,56.5-38,93.7c2.3-1.2,4.6-2.4,6.9-3.6C261.6,168.1,265.1,166.4,268.4,164.6z"/>
	</g>
	<path d="M359,142.9c-2.6,7.2-5.7,14.2-9.6,20.9c-2.2,3.8-4.6,7.6-7.1,11.3c-5.4,7.9-12,14.9-19.2,21.2c-6.1,5.3-12.6,10-19.5,14.2
		c-6,3.7-12.1,7.3-18.7,9.8c-3.4,1.3-6.8,2.3-10.3,3.3c-3.9,1.1-7.9,2.1-11.9,3.1c-3.1,0.8-10.5,2-13.6,2.8c-4.4,1.1-8.7,2.2-13,3.5
		c-4.5,1.4-9,3-13.4,4.9c0,0-10.1,3.6-15.5,11.7c-1.6-9.9-0.7-19.4,2.7-28.6c3.4-9.2,8.8-16.9,15.9-24l0.6-0.6c2-1.8,4-3.6,6.1-5.3
		c5.4-4.6,11.3-8.7,17.5-12.1c6.7-3.7,13.7-7,20.4-10.7c6.2-3.4,12.2-7.2,18.3-10.8c0,0,7-4.2,11.1-5.9c1.1,3.5,0.6,6.8-1,9.3
		c-2.7,4.3-6.7,7.3-10.8,10.3c-5.8,4.2-11.7,8.4-17.3,12.8c-2.5,2-4.6,4.6-6.8,6.9c-0.3,0.3-0.5,0.8-0.7,1.3c-0.5,1.2-0.2,1.7,1,2.2
		c1.9,0.7,3.9,0.5,5.8,0c2.3-0.6,4.5-1.4,6.7-2.4c7.6-3.3,14.8-7.2,21.8-11.5c0,0,23.1-13.3,61.1-49.7c0,0,3.7-3.6,4.6-4.7
		C363.4,131.9,359,142.9,359,142.9z"/>
</g>
</svg>
